# xmcd
#
# Track frame offsets:
#	150
#	11782
#	24402
#	37165
#	54150
#	69622
#	84217
#	105695
#	117255
#	129442
#	142812
#	157752
#	171267
#	186975
#	200860
#	212355
#	228240
#	243332
#	257502
#	269812
#
# Disc length: 3804 seconds
#
# Revision: 1
# Processed by: cddbd v1.5.2PL0 Copyright (c) Steve Scherf et al.
# Submitted via: audiograbber 1.83.01
#
DISCID=120eda14
DTITLE=Various Artist - Country Hit Parade [CD2]
DYEAR=1994
DGENRE=Country
TTITLE0=Chris LeDoux (duet with Garth Brooks) - Whatcha Gonna Do with a Cowboy
TTITLE1=Sammy Kershaw - Haunted Heart 
TTITLE2=Kathy Mattea - Time Passes By 
TTITLE3=Little Texas - You and Forever and Me 
TTITLE4=Confederate Railroad - She Never Cried
TTITLE5=Carline Carter  - Every Thing 
TTITLE6=Boy Howdy - A Cowboy's Born with a Broken Heart
TTITLE7=Collin Raye - I Want You Bad (and that Ain't Good)
TTITLE8=Randy Travis - Better Clase of Losers
TTITLE9=Hank Williams Jr - All My Rowdy Friends are Comin' Over Tonight 
TTITLE10=Ricky Van Shelton - Wild Man
TTITLE11=Doug Stone - Warning Labels 
TTITLE12=Tanya Tucker - Soon
TTITLE13=Toby Keith - He Ain't Worth Missing 
TTITLE14=Sawyer Brown - Trouble on the Line
TTITLE15=Hal Ketchum - I Know Where Love Lives 
TTITLE16=Suzy Bogguss - Just Like the Weather
TTITLE17=Billy Dean - Billy the Kid 
TTITLE18=Joe Diffie - New Way (to Light Up an Old Flame)
TTITLE19=John Berry  - Kiss Me in the Car 
EXTD=Corrected
EXTT0=
EXTT1=
EXTT2=
EXTT3=
EXTT4=
EXTT5=
EXTT6=
EXTT7=
EXTT8=
EXTT9=
EXTT10=
EXTT11=
EXTT12=
EXTT13=
EXTT14=
EXTT15=
EXTT16=
EXTT17=
EXTT18=
EXTT19=
PLAYORDER=
